<svg width="33" height="31" viewBox="0 0 33 31" fill="none" xmlns="http://www.w3.org/2000/svg">
<path d="M17.9133 2.5835C19.4602 2.58737 20.2453 2.59512 20.9232 2.6132L21.1899 2.62225C21.4979 2.63258 21.8018 2.6455 22.1689 2.661C23.6319 2.72558 24.6302 2.94258 25.5061 3.26162C26.4136 3.5897 27.1781 4.03404 27.9426 4.75091C28.6417 5.39661 29.1828 6.17767 29.5279 7.03975C29.8676 7.86254 30.0986 8.80029 30.1673 10.1759C30.1838 10.5195 30.1976 10.805 30.2086 11.0956L30.2168 11.3462C30.2374 11.9817 30.2457 12.7192 30.2484 14.1723L30.2498 15.1359V16.828C30.2532 17.7701 30.2427 18.7123 30.2182 19.6542L30.2099 19.9047C30.1989 20.1954 30.1852 20.4808 30.1687 20.8244C30.0999 22.2 29.8662 23.1365 29.5279 23.9606C29.1837 24.8231 28.6426 25.6044 27.9426 26.2494C27.255 26.906 26.4236 27.4142 25.5061 27.7387C24.6302 28.0577 23.6319 28.2747 22.1689 28.3393C21.8427 28.3538 21.5163 28.3667 21.1899 28.3781L20.9232 28.3858C20.2453 28.4039 19.4602 28.413 17.9133 28.4155L16.8876 28.4168H15.0877C14.0843 28.4201 13.0809 28.4102 12.0778 28.3871L11.8111 28.3794C11.4847 28.3678 11.1583 28.3544 10.8321 28.3393C9.36907 28.2747 8.37082 28.0577 7.49357 27.7387C6.57599 27.415 5.74487 26.9067 5.05844 26.2494C4.35863 25.6039 3.81713 24.8228 3.47169 23.9606C3.13207 23.1378 2.90107 22.2 2.83232 20.8244C2.817 20.5179 2.80325 20.2114 2.79107 19.9047L2.78419 19.6542C2.75885 18.7123 2.74739 17.7702 2.74982 16.828V14.1723C2.74598 13.2302 2.75606 12.288 2.78007 11.3462L2.78969 11.0956C2.80069 10.805 2.81444 10.5195 2.83094 10.1759C2.89969 8.80029 3.13069 7.86383 3.47032 7.03975C3.8156 6.17679 4.35818 5.39548 5.05982 4.75091C5.74607 4.09407 6.57664 3.58581 7.49357 3.26162C8.37082 2.94258 9.36769 2.72558 10.8321 2.661C11.1978 2.6455 11.5031 2.63258 11.8111 2.62225L12.0778 2.6145C13.0805 2.59155 14.0834 2.58164 15.0863 2.58479L17.9133 2.5835ZM16.4998 9.04183C14.6765 9.04183 12.9278 9.72226 11.6385 10.9334C10.3491 12.1446 9.62482 13.7873 9.62482 15.5002C9.62482 17.213 10.3491 18.8557 11.6385 20.0669C12.9278 21.2781 14.6765 21.9585 16.4998 21.9585C18.3232 21.9585 20.0719 21.2781 21.3612 20.0669C22.6505 18.8557 23.3748 17.213 23.3748 15.5002C23.3748 13.7873 22.6505 12.1446 21.3612 10.9334C20.0719 9.72226 18.3232 9.04183 16.4998 9.04183ZM16.4998 11.6252C17.0415 11.6251 17.5779 11.7252 18.0784 11.9199C18.5789 12.1145 19.0337 12.3999 19.4168 12.7597C19.7999 13.1194 20.1039 13.5466 20.3112 14.0167C20.5186 14.4868 20.6254 14.9906 20.6255 15.4995C20.6256 16.0084 20.519 16.5123 20.3118 16.9825C20.1046 17.4526 19.8008 17.8799 19.4178 18.2397C19.0348 18.5996 18.5801 18.8851 18.0797 19.08C17.5793 19.2748 17.0429 19.3751 16.5012 19.3752C15.4072 19.3752 14.358 18.9669 13.5844 18.2402C12.8108 17.5135 12.3762 16.5279 12.3762 15.5002C12.3762 14.4724 12.8108 13.4868 13.5844 12.7601C14.358 12.0334 15.4072 11.6252 16.5012 11.6252M23.7199 7.10433C23.2641 7.10433 22.8269 7.27444 22.5046 7.57723C22.1823 7.88002 22.0012 8.2907 22.0012 8.71891C22.0012 9.14713 22.1823 9.5578 22.5046 9.8606C22.8269 10.1634 23.2641 10.3335 23.7199 10.3335C24.1758 10.3335 24.613 10.1634 24.9353 9.8606C25.2576 9.5578 25.4387 9.14713 25.4387 8.71891C25.4387 8.2907 25.2576 7.88002 24.9353 7.57723C24.613 7.27444 24.1758 7.10433 23.7199 7.10433Z" fill="white"/>
</svg>
