<svg width="38" height="35" viewBox="0 0 38 35" fill="none" xmlns="http://www.w3.org/2000/svg">
<path d="M10.9886 7.29166C10.9882 8.06521 10.6542 8.80692 10.06 9.35363C9.46583 9.90034 8.66021 10.2073 7.82036 10.2069C6.9805 10.2065 6.17522 9.89882 5.58165 9.35157C4.98808 8.80431 4.65485 8.06229 4.65527 7.28874C4.65569 6.5152 4.98973 5.77348 5.58389 5.22678C6.17805 4.68007 6.98367 4.37315 7.82352 4.37354C8.66338 4.37392 9.46866 4.68158 10.0622 5.22884C10.6558 5.77609 10.989 6.51811 10.9886 7.29166ZM11.0836 12.3667H4.75027V30.625H11.0836V12.3667ZM21.0903 12.3667H14.7886V30.625H21.0269V21.0437C21.0269 15.7062 28.5794 15.2104 28.5794 21.0437V30.625H34.8336V19.0604C34.8336 10.0625 23.6553 10.3979 21.0269 14.8167L21.0903 12.3667Z" fill="white"/>
</svg>
